<?xml version="1.0" encoding="UTF-8"?>
<svg width="144px" height="40px" viewBox="0 0 144 40" version="1.1" xmlns="http://www.w3.org/2000/svg" xmlns:xlink="http://www.w3.org/1999/xlink">
    <!-- Generator: Sketch 42 (36781) - http://www.bohemiancoding.com/sketch -->
    <title>logo w7</title>
    <desc>Created with Sketch.</desc>
    <defs>
        <polygon id="path-1" points="0.0970793651 0.241904762 39.2221587 0.241904762 39.2221587 39.3647619 0.0970793651 39.3647619 0.0970793651 0.241904762"></polygon>
    </defs>
    <g id="Page-1" stroke="none" stroke-width="1" fill="none" fill-rule="evenodd">
        <g id="Welle7-–-Buzzer-Game---Home" transform="translate(-581.000000, -30.000000)">
            <g id="logo-w7" transform="translate(581.000000, 30.000000)">
                <polygon id="Fill-1" fill="#234678" points="22.2788571 12.9913016 19.4134603 24.5773333 15.8693333 12.9913016 12.048381 12.9913016 8.50488889 24.5773333 5.63949206 12.9913016 0.000126984127 12.9913016 6.04012698 34.931619 10.416 34.931619 13.9594921 24.1151111 17.5023492 34.931619 21.9099683 34.931619 27.9182222 12.9913016"></polygon>
                <polygon id="Fill-2" fill="#234678" points="44.9624762 30.1246349 35.4405714 30.1246349 35.4405714 26.2732063 43.5758095 26.2732063 43.5758095 21.4655873 35.4405714 21.4655873 35.4405714 17.7982857 44.9624762 17.7982857 44.9624762 12.9913016 30.0475556 12.9913016 30.0475556 34.931619 44.9624762 34.931619"></polygon>
                <polygon id="Fill-3" fill="#234678" points="62.4227937 30.1246349 53.2094603 30.1246349 53.2094603 12.9913016 47.8164444 12.9913016 47.8164444 34.931619 62.4227937 34.931619"></polygon>
                <polygon id="Fill-4" fill="#234678" points="65.2768889 34.9318095 79.8832381 34.9318095 79.8832381 30.1248254 70.6699048 30.1248254 70.6699048 12.9908571 65.2768889 12.9908571"></polygon>
                <polygon id="Fill-5" fill="#234678" points="97.6503492 12.9910476 82.7373333 12.9910476 82.7373333 34.932 97.6503492 34.932 97.6503492 30.124381 88.1297143 30.124381 88.1297143 26.2729524 96.2636825 26.2729524 96.2636825 21.4653333 88.1297143 21.4653333 88.1297143 17.7986667 97.6503492 17.7986667"></polygon>
                <g id="Group-8" transform="translate(104.761905, 0.393079)">
                    <mask id="mask-2" fill="white">
                        <use xlink:href="#path-1"></use>
                    </mask>
                    <g id="Clip-7"></g>
                    <path d="M39.2221587,19.8034921 C39.2221587,9.01746032 30.4456508,0.241587302 19.659619,0.241587302 C8.87295238,0.241587302 0.0970793651,9.01746032 0.0970793651,19.8034921 C0.0970793651,26.5380952 3.51866667,32.4885714 8.71295238,36.0079365 L10.5351746,31.3780952 C7.11295238,28.6765079 4.91231746,24.4936508 4.91231746,19.8034921 C4.91231746,11.6714286 11.5275556,5.05619048 19.659619,5.05619048 C27.7910476,5.05619048 34.4075556,11.6714286 34.4075556,19.8034921 C34.4075556,27.691746 28.1827937,34.1520635 20.3872381,34.532381 L27.1300952,17.4034921 L27.1300952,12.5977778 L12.1891429,12.5977778 L12.1891429,20.6104762 L16.9967619,20.6104762 L16.9967619,17.4034921 L21.5834286,17.4034921 L15.1173968,33.8326984 L15.116127,33.8326984 L13.3523175,38.315873 C15.332,38.9920635 17.4532698,39.3647619 19.659619,39.3647619 C30.4456508,39.3647619 39.2221587,30.5895238 39.2221587,19.8034921" id="Fill-6" fill="#234678" mask="url(#mask-2)"></path>
                </g>
            </g>
        </g>
    </g>
</svg>
